<svg width="186" height="84" viewBox="0 0 186 84" fill="none" xmlns="http://www.w3.org/2000/svg">
<path d="M124.139 79.0906C124.964 79.0135 125.57 78.2823 125.493 77.4575C125.416 76.6326 124.684 76.0265 123.86 76.1036L124.139 79.0906ZM112.252 74.2844C113.073 74.2844 115.754 74.4316 118.432 74.5094C119.729 74.5471 121.008 74.5672 121.974 74.5375C122.447 74.523 122.901 74.4952 123.259 74.4392C123.425 74.4134 123.666 74.3678 123.9 74.272C124.013 74.2258 124.222 74.1296 124.425 73.9442C124.643 73.7443 124.94 73.3534 124.94 72.7844L121.94 72.7844C121.94 72.253 122.218 71.8974 122.4 71.7305C122.567 71.5781 122.722 71.5127 122.765 71.4951C122.859 71.4565 122.895 71.4598 122.796 71.4751C122.629 71.5013 122.327 71.5252 121.882 71.5389C121.011 71.5657 119.808 71.5481 118.519 71.5106C116.022 71.4381 113.109 71.2844 112.252 71.2844V74.2844ZM124.94 72.7844C124.94 72.1828 124.94 67.9717 124.94 67.3701H121.94C121.94 67.9717 121.94 72.1828 121.94 72.7844L124.94 72.7844ZM124.94 67.3701C124.94 66.8355 124.677 66.4529 124.46 66.2419C124.261 66.0485 124.053 65.946 123.937 65.8955C123.701 65.7925 123.459 65.7444 123.299 65.7178C122.951 65.6598 122.517 65.6317 122.073 65.6171C121.166 65.5872 119.971 65.6075 118.777 65.6453C116.291 65.7239 113.914 65.8701 113.371 65.8701L113.371 68.8701C113.946 68.8701 116.604 68.7155 118.872 68.6438C120.056 68.6063 121.169 68.589 121.974 68.6155C122.388 68.6291 122.661 68.6527 122.807 68.677C122.894 68.6915 122.846 68.6921 122.741 68.6464C122.69 68.6246 122.533 68.5528 122.368 68.3924C122.185 68.2145 121.94 67.8672 121.94 67.3701H124.94ZM113.371 65.8701C112.568 65.8701 111.684 66.0818 110.958 66.6022C110.188 67.1545 109.633 68.0401 109.633 69.1749L112.633 69.1749C112.633 69.1416 112.637 69.1226 112.639 69.1144C112.641 69.1064 112.643 69.1027 112.644 69.1005C112.645 69.098 112.658 69.0753 112.706 69.0404C112.819 68.9592 113.055 68.8701 113.371 68.8701L113.371 65.8701ZM109.633 69.1749C109.633 70.378 109.633 76.394 109.633 77.5971L112.633 77.5971C112.633 76.3939 112.633 70.3781 112.633 69.1749L109.633 69.1749ZM109.633 77.5971C109.633 78.4471 110.224 78.9103 110.498 79.0772C110.793 79.2565 111.112 79.3489 111.344 79.4032C111.834 79.5176 112.447 79.5738 113.073 79.6031C114.352 79.6629 116.018 79.6224 117.636 79.5467C119.266 79.4705 120.891 79.3565 122.105 79.2618C122.714 79.2144 123.221 79.1717 123.576 79.1409C123.754 79.1254 123.894 79.1129 123.99 79.1043C124.038 79.0999 124.075 79.0965 124.1 79.0942C124.112 79.0931 124.122 79.0922 124.128 79.0916C124.132 79.0913 124.134 79.091 124.136 79.0909C124.137 79.0908 124.138 79.0907 124.138 79.0907C124.138 79.0907 124.138 79.0907 124.139 79.0906C124.139 79.0906 124.139 79.0906 123.999 77.5971C123.86 76.1036 123.86 76.1036 123.86 76.1036C123.859 76.1037 123.859 76.1037 123.859 76.1037C123.859 76.1037 123.858 76.1037 123.858 76.1038C123.856 76.1039 123.854 76.1041 123.851 76.1044C123.846 76.105 123.837 76.1058 123.825 76.1069C123.801 76.109 123.766 76.1123 123.72 76.1164C123.627 76.1248 123.491 76.137 123.317 76.1521C122.968 76.1823 122.47 76.2243 121.872 76.2709C120.675 76.3642 119.083 76.4757 117.496 76.55C115.898 76.6247 114.347 76.6594 113.213 76.6064C112.633 76.5792 112.242 76.532 112.027 76.482C111.908 76.454 111.95 76.4489 112.057 76.5136C112.143 76.566 112.633 76.8976 112.633 77.5971L109.633 77.5971Z" fill="#2B3410"/>
<path d="M147.494 62.5574C146.375 61.9558 135.187 61.9558 134.068 62.5574C132.95 63.1589 132.39 63.7605 131.831 64.9637C131.271 66.1669 130.712 75.1908 131.831 76.9955C132.95 78.8003 132.95 78.1987 134.068 78.8003C135.187 79.4019 146.375 79.4019 147.494 78.8003" stroke="#2B3410" stroke-width="3"/>
<path d="M154.766 71.5812L165.395 72.1828C165.395 72.1828 168.192 71.5812 168.751 70.378C169.311 69.1749 168.751 66.1669 168.751 64.3621C168.751 62.5574 165.954 61.9558 165.954 61.9558C165.954 61.9558 155.885 61.3542 154.766 61.9558C153.648 62.5574 154.207 79.4019 154.766 80.6051" stroke="#2B3410" stroke-width="3"/>
<path d="M60.3057 36.338L59.1998 37.3514L59.2032 37.3552L60.3057 36.338ZM34.4166 36.338L35.5179 37.3564L35.5213 37.3527L34.4166 36.338ZM31.3167 46.45C31.3167 47.2784 31.9883 47.95 32.8167 47.95C33.6451 47.95 34.3167 47.2784 34.3167 46.45H31.3167ZM34.3167 62.25C34.3167 61.4216 33.6451 60.75 32.8167 60.75C31.9883 60.75 31.3167 61.4216 31.3167 62.25H34.3167ZM31.2168 71.888L30.1109 72.9014L30.1143 72.9052L31.2168 71.888ZM12.5999 71.888L13.7012 72.9064L13.7046 72.9027L12.5999 71.888ZM9.5 82C9.5 82.8284 10.1716 83.5 11 83.5C11.8284 83.5 12.5 82.8284 12.5 82H9.5ZM88.1975 70.15L86.8744 70.8567L86.899 70.9028L86.9267 70.947L88.1975 70.15ZM82.1224 60.038L81.0165 61.0514L81.0199 61.0552L82.1224 60.038ZM63.5055 60.038L64.6068 61.0564L64.6102 61.0527L63.5055 60.038ZM92.1133 76.3939L90.8425 77.1909L91.2834 77.8939H92.1133V76.3939ZM94.3509 76.3939V77.8939H95.3341L95.7264 76.9923L94.3509 76.3939ZM100.504 62.25V60.75H99.5211L99.1289 61.6516L100.504 62.25ZM103.301 62.25H104.801V60.75H103.301V62.25ZM101.801 78.8003V80.3003H104.801V78.8003H101.801ZM63.4056 82V46.45H60.4056V82H63.4056ZM63.4056 46.45C63.4056 43.6965 63.4083 41.4922 63.1942 39.7652C62.9762 38.0069 62.5112 36.5164 61.4081 35.3208L59.2032 37.3552C59.7001 37.8937 60.035 38.6666 60.217 40.1343C60.4029 41.6336 60.4056 43.6182 60.4056 46.45H63.4056ZM61.4116 35.3246C60.2964 34.1076 58.8763 33.5782 57.2008 33.3331C55.5822 33.0962 53.5237 33.1 50.9972 33.1V36.1C53.6159 36.1 55.4153 36.1038 56.7665 36.3015C58.0608 36.4908 58.7223 36.8304 59.1998 37.3514L61.4116 35.3246ZM50.9972 33.1H43.725V36.1H50.9972V33.1ZM43.725 33.1C41.2003 33.1 39.1428 33.0962 37.5242 33.3331C35.8486 33.5782 34.4285 34.1075 33.3118 35.3234L35.5213 37.3527C36.0009 36.8305 36.6643 36.4908 37.9585 36.3015C39.3097 36.1038 41.1082 36.1 43.725 36.1V33.1ZM33.3153 35.3196C32.2111 36.5136 31.746 38.0041 31.5281 39.7623C31.314 41.4892 31.3167 43.6946 31.3167 46.45H34.3167C34.3167 43.6162 34.3194 41.6306 34.5053 40.1314C34.6873 38.6634 35.0221 37.8925 35.5179 37.3564L33.3153 35.3196ZM34.3167 82V62.25H31.3167V82H34.3167ZM34.3167 82C34.3167 79.2465 34.3194 77.0422 34.1053 75.3152C33.8873 73.5569 33.4223 72.0664 32.3192 70.8709L30.1143 72.9052C30.6112 73.4437 30.9461 74.2166 31.1281 75.6843C31.314 77.1836 31.3167 79.1682 31.3167 82H34.3167ZM32.3227 70.8746C31.2075 69.6576 29.7874 69.1282 28.1119 68.8831C26.4933 68.6462 24.4348 68.65 21.9083 68.65V71.65C24.527 71.65 26.3264 71.6538 27.6776 71.8515C28.9718 72.0408 29.6334 72.3804 30.1109 72.9014L32.3227 70.8746ZM21.9083 68.65C19.3819 68.65 17.3243 68.6462 15.7061 68.8831C14.0305 69.1283 12.6116 69.6578 11.4951 70.8734L13.7046 72.9027C14.1845 72.3802 14.8472 72.0407 16.1405 71.8514C17.4912 71.6538 19.2897 71.65 21.9083 71.65V68.65ZM11.4986 70.8696C10.3944 72.0636 9.92936 73.5541 9.71138 75.3123C9.49728 77.0392 9.5 79.2446 9.5 82H12.5C12.5 79.1662 12.5027 77.1806 12.6886 75.6814C12.8706 74.2134 13.2055 73.4425 13.7012 72.9064L11.4986 70.8696ZM88.1975 70.15C89.5205 69.4433 89.5205 69.4432 89.5205 69.4431C89.5204 69.443 89.5203 69.4429 89.5203 69.4427C89.5201 69.4424 89.5199 69.442 89.5196 69.4414C89.519 69.4403 89.5181 69.4387 89.5169 69.4365C89.5147 69.4323 89.5113 69.426 89.5069 69.4178C89.4982 69.4015 89.4853 69.3774 89.4684 69.346C89.4347 69.2833 89.3853 69.1914 89.322 69.0741C89.1954 68.8395 89.0129 68.5029 88.7891 68.0939C88.3418 67.2763 87.7279 66.1666 87.0627 65.0009C86.3987 63.8372 85.6779 62.6075 85.0179 61.5535C84.381 60.5364 83.7331 59.5718 83.2248 59.0209L81.0199 61.0552C81.3116 61.3713 81.823 62.1041 82.4752 63.1457C83.1043 64.1502 83.8023 65.3401 84.457 66.4877C85.1107 67.6332 85.7155 68.7264 86.1573 69.5338C86.3781 69.9373 86.5578 70.2688 86.6821 70.4992C86.7443 70.6143 86.7926 70.7041 86.8252 70.765C86.8415 70.7954 86.854 70.8185 86.8622 70.834C86.8664 70.8417 86.8695 70.8475 86.8715 70.8513C86.8725 70.8532 86.8733 70.8546 86.8738 70.8555C86.874 70.856 86.8742 70.8563 86.8743 70.8565C86.8743 70.8566 86.8744 70.8567 86.8744 70.8567C86.8744 70.8568 86.8744 70.8567 88.1975 70.15ZM83.2283 59.0246C82.1131 57.8076 80.693 57.2782 79.0175 57.0331C77.3989 56.7962 75.3404 56.8 72.8139 56.8V59.8C75.4325 59.8 77.232 59.8038 78.5832 60.0015C79.8774 60.1908 80.539 60.5304 81.0165 61.0514L83.2283 59.0246ZM72.8139 56.8C70.2875 56.8 68.2299 56.7962 66.6117 57.0331C64.9361 57.2783 63.5172 57.8078 62.4007 59.0234L64.6102 61.0527C65.09 60.5302 65.7528 60.1907 67.0461 60.0014C68.3968 59.8038 70.1953 59.8 72.8139 59.8V56.8ZM62.4042 59.0196C61.3 60.2136 60.8349 61.7041 60.617 63.4623C60.4029 65.1892 60.4056 67.3946 60.4056 70.15H63.4056C63.4056 67.3162 63.4083 65.3306 63.5942 63.8314C63.7762 62.3634 64.111 61.5925 64.6068 61.0564L62.4042 59.0196ZM60.4056 70.15V82H63.4056V70.15H60.4056ZM86.9267 70.947L90.8425 77.1909L93.3841 75.597L89.4682 69.3531L86.9267 70.947ZM92.1133 77.8939H94.3509V74.8939H92.1133V77.8939ZM95.7264 76.9923L101.88 62.8484L99.1289 61.6516L92.9754 75.7955L95.7264 76.9923ZM100.504 63.75H103.301V60.75H100.504V63.75ZM101.801 62.25V78.8003H104.801V62.25H101.801Z" fill="#2B3410"/>
<path d="M44.2559 7.04085C45.6376 4.343 46.3285 3 47.3611 3C48.3938 3 49.0846 4.343 50.4664 7.04085L50.8227 7.73605C51.2154 8.50235 51.4118 8.88155 51.7172 9.13435C52.0263 9.38715 52.408 9.48195 53.1716 9.6676L53.8625 9.8414C56.5459 10.5011 57.8877 10.8289 58.2076 11.9428C58.5276 13.0567 57.6113 14.222 55.7824 16.5446L55.3097 17.145C54.7897 17.8046 54.5279 18.1325 54.4115 18.5433C54.2952 18.9541 54.3352 19.3925 54.4115 20.2734L54.4843 21.0752C54.7606 24.176 54.8988 25.7283 54.0661 26.4156C53.2298 27.1069 51.9717 26.4749 49.4592 25.2188L48.8119 24.8949C48.0956 24.5394 47.7393 24.3577 47.3611 24.3577C46.983 24.3577 46.6266 24.5394 45.9103 24.8949L45.2631 25.2188C42.7505 26.4749 41.4924 27.1069 40.6561 26.4156C39.8198 25.7283 39.9616 24.176 40.238 21.0752L40.3107 20.2734C40.3871 19.3925 40.4271 18.9541 40.3107 18.5433C40.1943 18.1325 39.9325 17.8046 39.4126 17.145L38.9399 16.5446C37.1109 14.222 36.1946 13.0607 36.5146 11.9428C36.8346 10.8289 38.1763 10.5011 40.8598 9.8414L41.5506 9.6676C42.3142 9.48195 42.696 9.3911 43.0051 9.13435C43.3105 8.88155 43.5068 8.50235 43.8995 7.73605L44.2559 7.04085Z" stroke="#2B3410" stroke-width="3"/>
</svg>
